# xmcd
#
# Track frame offsets: 
#        150
#        43570
#        77873
#        112811
#        152144
#        190052
#        223277
#        262238
#        297275
#        333279
#
# Disc length: 4797 seconds
#
# Revision: 0
# Processed by: cddbd v1.5.2PL0 Copyright (c) Steve Scherf et al.
# Submitted via: ExactAudioCopyFreeDBPlugin 1.0
#
DISCID=9212bb0a
DTITLE=Goe - Jupiter Beach (PSC1CD002)
DYEAR=2007
DGENRE=Psychedelic
TTITLE0=Judgement Day Reload
TTITLE1=Psychedelic Music
TTITLE2=Needs
TTITLE3=Watchawant
TTITLE4=Jupiter Beach
TTITLE5=Limit
TTITLE6=Free Will
TTITLE7=Like God Reload
TTITLE8=Liquid Universe
TTITLE9=La Rotta
EXTD=
EXTT0=
EXTT1=
EXTT2=
EXTT3=
EXTT4=
EXTT5=
EXTT6=
EXTT7=
EXTT8=
EXTT9=
PLAYORDER=
